# xmcd
#
# Track frame offsets: 
#        187
#        12787
#        28687
#        35925
#        46512
#        60487
#        76087
#        92475
#        103862
#        118650
#        132900
#        140475
#        151950
#        160425
#
# Disc length: 2293 seconds
#
# Revision: 2
# Processed by: cddbd v1.4PL0 Copyright (c) Steve Scherf et al.
# Submitted via: ExactAudioCopy v0.95a3
#
DISCID=ad08f30e
DTITLE=Brave Combo - A Night on Earth
DYEAR=1990
DGENRE=
TTITLE0=A Night on Earth
TTITLE1=Don't Ever Dance with Maria
TTITLE2=Hora Bialik
TTITLE3=Do Something Different
TTITLE4=Two Marys
TTITLE5=Dulcecita
TTITLE6=Jealousy
TTITLE7=Laura
TTITLE8=What is This Darkness
TTITLE9=Italian Medley # 1
TTITLE10=Italian Medley #2
TTITLE11=Hey There
TTITLE12=Linda Guerita
TTITLE13=Saxophone, Why Do You Weep?
EXTD=
EXTT0=
EXTT1=
EXTT2=
EXTT3=
EXTT4=
EXTT5=
EXTT6=
EXTT7=
EXTT8=
EXTT9=
EXTT10=
EXTT11=
EXTT12=
EXTT13=
PLAYORDER=
